<?xml version="1.0" standalone="no"?>
<!DOCTYPE svg PUBLIC "-//W3C//DTD SVG 20010904//EN"
 "http://www.w3.org/TR/2001/REC-SVG-20010904/DTD/svg10.dtd">
<svg version="1.0" xmlns="http://www.w3.org/2000/svg"
 width="132.000000pt" height="132.000000pt" viewBox="0 0 132.000000 132.000000"
 preserveAspectRatio="xMidYMid meet">
<metadata>
Created by potrace 1.14, written by Peter Selinger 2001-2017
</metadata>
<g transform="translate(0.000000,132.000000) scale(0.100000,-0.100000)"
fill="#000000" stroke="none">
<path d="M534 1190 c-18 -29 -231 -396 -473 -817 l-53 -92 37 -68 c21 -37 47
-80 57 -96 l19 -27 542 2 542 3 53 93 c30 50 52 98 48 105 -3 6 -124 217 -269
467 l-264 455 -108 5 -108 5 -23 -35z m229 -37 c43 -69 487 -841 487 -847 0
-3 -180 -6 -401 -6 l-400 0 35 62 35 63 251 3 c204 2 250 5 250 16 0 13 -392
701 -411 721 -19 20 -7 25 61 25 l70 0 23 -37z m10 -345 l195 -338 -73 0 -73
0 -122 211 c-81 140 -127 209 -137 207 -8 -2 -106 -163 -219 -358 -113 -195
-209 -359 -213 -363 -5 -5 -24 19 -44 53 l-34 62 211 366 c303 524 297 515
306 505 5 -4 96 -160 203 -345z m-169 -38 l36 -61 -117 -201 c-64 -111 -117
-211 -117 -223 -1 -20 3 -20 422 -23 232 -1 422 -4 422 -7 0 -2 -16 -31 -35
-64 l-36 -61 -510 0 -511 0 25 43 c13 23 104 180 201 350 98 169 179 307 181
307 1 0 19 -27 39 -60z m114 -199 c29 -49 52 -92 52 -95 0 -3 -50 -6 -111 -6
-61 0 -109 3 -107 8 11 27 104 182 108 182 3 0 29 -40 58 -89z"/>
</g>
</svg>
